# xmcd CD database file
#
# Track frame offsets:
#	150
#	12157
#	26790
#	44287
#	62108
#	73450
#	89783
#	104331
#	118200
#	133991
#
# Disc length: 1993 seconds
#
# Revision: 1
# Processed by: cddbd v1.5.2PL0 Copyright (c) Steve Scherf et al.
# Submitted via: CDex 1.70beta2
#
DISCID=9c07c70a
DTITLE=Ramsay Midwood - Popular Delusions and The Madness Of Cows
DYEAR=2006
DGENRE=Blues
TTITLE0=Ringmaster
TTITLE1=I Told You So
TTITLE2=Planet Nixon
TTITLE3=Withered Rose
TTITLE4=Jesus is #1
TTITLE5=Boxwine Ruth E
TTITLE6=Rattlesnake
TTITLE7=Weary Head
TTITLE8=Prozac
TTITLE9=When God Dips His Pen
EXTD=YEAR: 2006
EXTT0=
EXTT1=
EXTT2=
EXTT3=
EXTT4=
EXTT5=
EXTT6=
EXTT7=
EXTT8=
EXTT9=
PLAYORDER=
